<svg xmlns="http://www.w3.org/2000/svg" xmlns:xlink="http://www.w3.org/1999/xlink" viewBox="0 0 2731.23 2343.28"><defs><style>.cls-1{fill:none;}.cls-2{fill:#fff;}.cls-3{fill:#ed1c24;}.cls-4{clip-path:url(#clip-path);}.cls-5{fill:url(#linear-gradient);}</style><clipPath id="clip-path"><path class="cls-1" d="M454.86,1110.38C489.23,824,1028.35,607.93,1503.16,664.7,1978,721.65,2308,987.94,2273.66,1274.32c-30.22,252.61-413,433-828.68,433a1420.43,1420.43,0,0,1-167.81-9.91c-455-54.54-824.43-280.54-824.43-551.25v-.55a294.24,294.24,0,0,1,2.12-35.18m910.77-476.11c-571.21,0-1034.29,246.5-1034.29,550.58s463.08,550.5,1034.29,550.5,1034.26-246.52,1034.26-550.5S1936.83,634.27,1365.63,634.27"/></clipPath><linearGradient id="linear-gradient" x1="540.21" y1="651" x2="565.08" y2="651" gradientTransform="translate(33488.06 -26084.94) rotate(90) scale(49.34)" gradientUnits="userSpaceOnUse"><stop offset="0" stop-color="#8b0e1a"/><stop offset="0.1" stop-color="#a5121d"/><stop offset="0.22" stop-color="#bf151f"/><stop offset="0.35" stop-color="#d41821"/><stop offset="0.51" stop-color="#e21a23"/><stop offset="0.69" stop-color="#ea1c24"/><stop offset="1" stop-color="#ed1c24"/></linearGradient></defs><title>Logo Sasa</title><g id="Layer_2" data-name="Layer 2"><g id="Layer_1-2" data-name="Layer 1"><path class="cls-2" d="M2339.31,1172.27c0,296.35-429.16,536.61-958.54,536.61s-958.59-240.26-958.59-536.61S851.34,635.7,1380.77,635.7s958.54,240.2,958.54,536.57"/><path class="cls-2" d="M2339.11,1170.68c0,296.22-429,536.41-958.12,536.41S422.8,1466.9,422.8,1170.68s429-536.44,958.19-536.44,958.12,240.17,958.12,536.44"/><path class="cls-2" d="M2099.71,1099.72a44.28,44.28,0,1,1-44.31-44.49,44.38,44.38,0,0,1,44.31,44.49"/><path class="cls-3" d="M2055.4,1147.21a47.53,47.53,0,1,1,47.32-47.5,47.45,47.45,0,0,1-47.32,47.5m0-89a41.44,41.44,0,1,0,41.33,41.45,41.38,41.38,0,0,0-41.33-41.45"/><path class="cls-3" d="M2071.59,1090.15l-1.59,6.27-4.68,4.78,2.84,1.34,1.74,2.16.87,2.61.25,2.86V1117l.34,2.86,1,2.38h-5.17l-.82-2.46-.1-2.53v-7.17l-.53-2.53-1.41-2.27-2.49-1.66-3.83-.62h-13.58v19.24h-4.77v-44.91h18.35l5.84,1.15,4.26,3,2.58,4.1.85,4.57m-27.11,8.63h13.58l3.33-.67,2.76-1.86,1.94-2.81.72-3.31-.67-3.38-1.81-2.64-2.79-1.76-3.48-.7h-13.58Z"/><path class="cls-3" d="M2118.24,1251l-.7-1.34c-13.37-15.82-51.65,23-60,31.63-12.21,12.76-23.07,26.68-35.53,39.21-11.84,11.89-26.71,27.23-43.42,31-13.85,3-22.9-6.94-19.17-20.64,3.45-13.06,9.12-25.74,15.42-37.8,8-15.39,16.51-30.39,24.89-45.56,7.78-14.22,13.38-30.56,18.7-46,3-8.7,3.58-16.21,1.24-25.14a24.06,24.06,0,0,0-6.12-11.34c-9.62-9.13-22.08.1-32.67,2.09-12.66,2.31-22.85,3.7-35.61,1-13.41-2.91-25.39-10.57-39.24-11.77-22.19-1.86-44.42,2.94-65.58,9.16-45.83,13.5-89.7,41-117.87,80.14-9.18,12.79-16.76,26.07-29.29,35.91l-4.63,2.31c-6.56.5-11.09-10.56-13.3-15.36-2.24-5.15-2.54-3.68-4.21-9-8.28-28.1-16.33-56.3-23.94-84.62-1.37-4.88-2.66-9.68-3.66-14.63,0,0,8.78-12.53,13.6-18.22,19.43-22.76,27.36-50.68,27.61-80.5s-23.6-47.17-51.68-36.9c-15.39,5.62-28.7,16-36.83,30.36-8.92,16-9.89,34.32-11.29,52.2-1.24,16.16-1.94,32.4-1.79,48.59.15,8.43.25,18.62,1.49,26.46,0,0-80,92.75-114,129.56-12.75,13.77-29,24.54-44.78,35.11-5.23,3.51-16.76,7.93-23.21,7.56-12.83-.77-2.26-16.59.25-22.38,4.68-10.84,9.43-21.61,14.5-32.21,14.5-29.76,47.13-70.89,43.15-105.46-.48-4.2-1.74-8.8-5.28-11.21-2.51-1.52-5.69-1.77-8.65-1.74-13.43.1-26.71,3.48-40.18,3.43-13.16,0-21-4.75-32.13-9.9a113.37,113.37,0,0,0-79.36-5.52c-71.07,21.21-121.42,67.61-151.81,135.18a49.12,49.12,0,0,1-9.65,14.6l-32.15,5.24c4.6-7.53,9.64-16,13.82-22.28,18-27.43,26-57.91,26.83-90.47,1-40.31-30.21-74.52-70.2-78.55-18.17-1.82-36.85-1.29-55.18-.6-36.58,1.39-73.16,5.5-109.69,5.3-33-.15-47-24.25-31.73-53.76,9.63-18.58,22.43-36.09,36.51-51.53,21-22.83,43.69-44.12,66.84-64.71,59.88-53.19,125.36-98.47,198.09-132.07,28.93-13.33,42.08-2,37.48,29.15-8.43,57.27-39.44,102.1-78.8,141.92-6.67,6.79-16,11.63-25,15.34-20.56,8.48-31.06,1.49-27.95-20.32,1.87-13.15,5.6-26.06,9.43-39a4.72,4.72,0,0,0-8.06-4.43,333.77,333.77,0,0,0-38.17,53.46c-12.29,21.59-9,50.93,3.7,59.39,20.47,13.55,38.37,1.47,54.46-9.38,56.6-38.17,94.3-91.33,116.11-155.34,12.36-36.19,32.68-116.48-30.41-113.08-15.27.8-30.71,4.21-45.39,8.71-135.45,41.95-250.14,118.34-351.2,216.62-42.2,41.05-78.53,87-102.15,141.77-19.43,45,5,88.15,51.45,100,15.21,3.81,30.93,4.58,46.62,5.1,64.28,2.09,127.77-4.1,191.85-4.7,23.93-.3,36.56,13.48,35.09,32.9a50.34,50.34,0,0,1-1.79,9.72l-.92,2.34c-.59,1.72-1.71,4.33-3.21,7.74a268.69,268.69,0,0,1-15.09,28.17l-39.19,6.39-1.89.33c-5.1.74-10.2,1.54-15.22,2.53-53.79,10.47-106.56,22.08-141.92,67.81-5.1,6.64-9.8,14-10.92,22.34-1.91,15,8.83,29.39,22.34,36s29.32,6.79,44.31,5.72c37.45-2.64,75.17-12.48,108-30.89s61.17-43.59,89.47-68.06c17.73-15.47,37.85-20.24,59.83-22.53,11-1.22,17,2.11,19.7,13.38,12.75,51.72,55.53,72.74,106.26,60.08,28.3-7.09,54.21-23.6,82.56-36.53,16.06,19.25,30.76,30.88,56,21.68,27.1-9.79,51.75-27.2,76.56-41.6-.07,0,23.85,26.58,26.34,28.82,9.87,9.1,21.19,16.84,33.84,21.39,28.78,10.32,65,3.48,92.83-7.24,22.24-8.5,42.78-23,55.63-43.07,5.32-8.4,9.2-17.56,12.88-26.78,3.58-9.05,6.34-21.36,12.49-29.07,6.46,4.52,7.68,22,9,29.32,2,10.64,3.73,21.51,8.09,31.45,9,20.6,25,34.69,46.85,40.17,44.13,11.16,84.3-2.37,118.74-31.78,9.22,14.29,19.72,31.58,38.49,32.12,9.55.3,18.73-2.83,27.38-6.66,35.71-15.84,63.34-37.92,91-64.63,17.06-16.56,33.67-39.54,50.76-56.08,8.58-8.23,17.08-16.53,25.63-24.86,4.21-4.13,19-14.73,17.61-20.62M940.57,1377.47l31.43-2.89a429.3,429.3,0,0,1-29,33.77l-1,1c-25.71,30-68.46,54.83-97.33,54.81-9,0-22.56-5.82-25.64-12.78-3.06-6.74,1.57-21.66,7.91-27.38,30.16-27.51,70.2-40.93,112.28-46.36Zm419.51-126.75c-6.16,25.09-18.08,48.36-33.89,68.76-16.69,21.46-34.52,44.56-61.2,54.85a62.89,62.89,0,0,1-26.71,4.28c-7.26-.45-15.54-2.21-20.71-7.81-7.59-8.16-6-21.09-2.84-31.88,16-55.78,55.71-97.28,105.71-124.41,14.9-8.18,35.14-7.86,40.56,11.54a36.39,36.39,0,0,1,1.12,12.21,72.94,72.94,0,0,1-2,12.46m179.55,26.68,3.35-5.79c13.55-18.88,24.17-39.94,40.31-56.9l.42-.47,4.51-4.53c2.46-.35,8.7,32,9.42,35.61,2.79,13.53,4,27.5,6.86,41.06-8.3,0-16.73,0-25.06,0-7.36,0-14.7,0-22.06,0-3.71,0-7.48-.05-11.26-.2-3.44-.1-7.71.25-11-.72.78-2.71,3.29-5.64,4.51-8.08m60.57,77.19a65.59,65.59,0,0,1-18.08,20.29c-11.31,8.55-25.41,14.45-39.76,14.7H1542c-33.13.29-59.26-25.79-47.43-54.39a34,34,0,0,1,15.65-16.86c12.26-6.54,26.83-8.26,40.51-8.93,17.23-.89,34.56.2,51.87,0l3.26,2.86c.3,3.53.25,7.24.3,10.85.27,10.94-.63,21.85-6,31.48m36.26-215.38c-2.29.4-4-5.64-4.85-7.71-9.08-21.86-11.66-53.49,2.26-74.08a36.64,36.64,0,0,1,10.6-10.42l5.27-1.81,5.94,2.61c24.3,19.32,8.36,55.53-5.94,75.77a114.25,114.25,0,0,1-8.75,11l-4.53,4.6m282.19,96.34c-7.55,32.33-24,59-47.79,84.4-15.94,17.11-35.44,37-57.37,45.48-14.52,5.64-28,6.81-40.68-3.9-18.33-15.62-9-41.71.44-59.83,22.48-43,64-89.5,114.77-95.92,25-3.18,35.78,7.78,30.63,29.77"/><g class="cls-4"><rect class="cls-5" x="207.76" y="315.91" width="2315.7" height="1711.45" transform="translate(-295.22 479.34) rotate(-18)"/></g></g></g></svg>